<svg xmlns="http://www.w3.org/2000/svg" viewBox="0 0 1440 320" preserveAspectRatio="none"><path fill="#fff" fill-opacity="1" d="M0,192L26.7,170.7C53.3,149,107,107,160,90.7C213.3,75,267,85,320,122.7C373.3,160,427,224,480,224C533.3,224,587,160,640,160C693.3,160,747,224,800,218.7C853.3,213,907,139,960,138.7C1013.3,139,1067,213,1120,202.7C1173.3,192,1227,96,1280,64C1333.3,32,1387,64,1413,80L1440,96L1440,320L1413.3,320C1386.7,320,1333,320,1280,320C1226.7,320,1173,320,1120,320C1066.7,320,1013,320,960,320C906.7,320,853,320,800,320C746.7,320,693,320,640,320C586.7,320,533,320,480,320C426.7,320,373,320,320,320C266.7,320,213,320,160,320C106.7,320,53,320,27,320L0,320Z"></path></svg>